<svg xmlns="http://www.w3.org/2000/svg" viewBox="0 0 1173 402"><defs><style>.a{fill:#e84b4b;}</style></defs><path class="a" d="M648,135.5c-40,0-72.5,32-72.5,71.25V321h36V268.29A73,73,0,0,0,648,278c40,0,72.5-32,72.5-71.25S688,135.5,648,135.5ZM648,242a39.46,39.46,0,0,1-23.79-8.53C622.46,232,614,224.58,612,212.33a31.25,31.25,0,0,1-.46-5.58c.09-14.17,9.72-23.95,10.7-24.92,1.18-1.16,11.23-10.33,25.8-10.33,20.13,0,36.5,15.81,36.5,35.25S668.13,242,648,242Z"/><path class="a" d="M1005,210.07a40.65,40.65,0,0,0-18.25-11.38,230.27,230.27,0,0,0-27-5.87q-14.76-2.25-21.5-4.75t-6.75-8.75q0-5.5,6.25-9t18.75-3.5a77.59,77.59,0,0,1,38.75,10l13-27.75q-9.25-5.5-23.38-8.63a131.1,131.1,0,0,0-28.37-3.12q-19.26,0-33.38,5.5t-21.5,15.37a36.88,36.88,0,0,0-7.37,22.63q0,15.26,7.87,23.5a42.3,42.3,0,0,0,18.63,11.5A200,200,0,0,0,948,221.57q14,1.76,20.75,4.25t6.75,8.25q0,12.26-24.75,12.25a91,91,0,0,1-25-3.63A81.71,81.71,0,0,1,904,233.32l-13,28q9.5,6.26,25.5,10.37a130.6,130.6,0,0,0,32.75,4.13q19.74,0,34.12-5.38t21.88-15.12a35.52,35.52,0,0,0,7.5-22.25Q1012.75,218.33,1005,210.07Z"/><path class="a" d="M843.75,145.82a79.75,79.75,0,0,0-72.38.37,65.77,65.77,0,0,0-25.75,24.75,68.75,68.75,0,0,0-9.37,35.63q0,20,9.5,35.75a65,65,0,0,0,27,24.62q17.49,8.88,40.25,8.88,36.5,0,55.5-21.75l-20.75-22.5a45.06,45.06,0,0,1-15.13,9.87A51.44,51.44,0,0,1,814,244.57q-15.25,0-25.5-7.25a31.65,31.65,0,0,1-13-19.75H877.25q.75-9.75.75-10.5,0-21-9.13-36.88A62.08,62.08,0,0,0,843.75,145.82Zm-68.75,49q2-13,11-20.5t22.25-7.5q13,0,22,7.62t11,20.38Z"/><rect class="a" x="515.5" y="137.5" width="39" height="138"/><path class="a" d="M492.5,137.5H477.69c-8.23,0-34.37,1.12-52.19,20.61-10.86,11.88-17.06,24.82-17,42q.12,37.68.25,75.36h39V212c-.19-3.34-.69-18.35,9.5-28.15,9.55-9.16,24.18-9.64,31.25-9.87,1.67-.06,3.05,0,4,0C492.58,161.47,492.42,150,492.5,137.5Z"/><path class="a" d="M388.11,239.24c-.95,0-2.33.06-4,0-7-.23-21.64-.7-31.15-9.84-10.16-9.76-9.66-24.73-9.47-28.06V173H388V138H343.5V117.84h-39v56.22q-.06,19.53-.13,39.07c-.06,17.15,6.12,30.05,16.95,41.9,17.76,19.42,43.83,20.53,52,20.54h14.77C388,263.14,388.19,251.69,388.11,239.24Z"/><path class="a" d="M256,198.69a230.27,230.27,0,0,0-27-5.87q-14.75-2.25-21.5-4.75t-6.75-8.75q0-5.5,6.25-9t18.75-3.5a77.57,77.57,0,0,1,38.75,10l13-27.75q-9.24-5.5-23.37-8.63a131.26,131.26,0,0,0-28.38-3.12q-19.25,0-33.37,5.5t-21.5,15.37a36.82,36.82,0,0,0-7.38,22.63q0,15.26,7.88,23.5A42.33,42.33,0,0,0,190,215.82a200.29,200.29,0,0,0,27.25,5.75q14,1.76,20.75,4.25t6.75,8.25q0,12.26-24.75,12.25a91.08,91.08,0,0,1-25-3.63,81.71,81.71,0,0,1-21.75-9.37l-13,28q9.51,6.26,25.5,10.37a130.72,130.72,0,0,0,32.75,4.13q19.75,0,34.13-5.38t21.87-15.12a35.52,35.52,0,0,0,7.5-22.25q0-14.74-7.75-23A40.59,40.59,0,0,0,256,198.69Z"/></svg>